<svg id="SvgjsSvg1001" width="288" height="288" xmlns="http://www.w3.org/2000/svg" version="1.1" xmlns:xlink="http://www.w3.org/1999/xlink" xmlns:svgjs="http://svgjs.com/svgjs"><g id="SvgjsG1022" transform="matrix(0.74,0,0,0.74,37.44,37.44)" fill="#000000"><circle id="SvgjsCircle1023" r="144" cx="144" cy="144"></circle><rect id="SvgjsRect1024" width="164" height="164" x="124" y="124" rx="20" ry="20"></rect></g><defs id="SvgjsDefs1002"></defs><g id="SvgjsG1008" transform="matrix(0.4652,0,0,0.4652,77.00274174499512,77.02323659057618)"><svg xmlns="http://www.w3.org/2000/svg" viewBox="0 0 64 64" width="288" height="288"><path d="M57.61 39.69h-.02c-1.16-2.46-2.96-5.1-5.25-7.76 6.26-7.34 8.35-14.11 5.57-18.27-2.52-3.75-8.45-4.68-16.39-2.6C38.82 4.01 34.86 0 30.52 0c-1.77 0-3.46.65-5.05 1.92-.56-.25-1.18-.39-1.83-.39-2.5 0-4.53 2.03-4.53 4.53 0 1.19.47 2.27 1.23 3.09-.29.64-.57 1.31-.83 2.01-8-2.07-13.97-1.12-16.47 2.66C.28 18 2.4 24.76 8.7 32.05 2.44 39.4.36 46.18 3.14 50.34c.59.87 1.37 1.6 2.33 2.17A4.535 4.535 0 0 0 10 57.02c2.01 0 3.69-1.32 4.29-3.13 1.64-.16 3.39-.48 5.23-.96 2.69 7.06 6.66 11.08 11 11.08 4.36 0 8.33-4.05 11.03-11.16 2.76.71 5.29 1.09 7.5 1.09 4.2 0 7.31-1.26 8.95-3.74.33-.49.58-1.03.77-1.6 1.93-.52 3.37-2.27 3.37-4.36a4.53 4.53 0 0 0-4.53-4.55zM41.33 21.95c-.92-.67-1.88-1.33-2.85-1.98a73.452 73.452 0 0 0-4.87-2.96c2.09-.97 4.12-1.77 6.09-2.42.69 2.26 1.24 4.75 1.63 7.36zM28.18 6.06c0-.79-.22-1.52-.58-2.17.96-.68 1.94-1.03 2.92-1.03 3 0 6.03 3.35 8.24 9.02-2.67.88-5.45 2.04-8.29 3.47a59.483 59.483 0 0 0-8.21-3.39c.19-.5.39-.98.6-1.45.25.04.51.08.78.08 2.51 0 4.54-2.03 4.54-4.53zm-4.53-1.67c.92 0 1.67.75 1.67 1.67s-.75 1.67-1.67 1.67c-.92 0-1.67-.75-1.67-1.67s.75-1.67 1.67-1.67zm-2.33 10.29c1.97.64 3.98 1.41 6.03 2.35-1.65.94-3.28 1.94-4.84 2.99-.95.64-1.89 1.29-2.79 1.96.38-2.59.92-5.06 1.6-7.3zm-15.89.72c1.72-2.6 6.69-3.15 13.14-1.53-.97 3.21-1.67 6.83-2.06 10.6a64.463 64.463 0 0 0-5.88 5.44c-5.09-5.99-7.12-11.6-5.2-14.51zM16.2 35.54a57.65 57.65 0 0 1-3.63-3.49c1.13-1.2 2.34-2.37 3.63-3.53-.06 1.16-.08 2.32-.08 3.48-.01 1.19.02 2.37.08 3.54zM10 54.15c-.92 0-1.67-.75-1.67-1.67 0-.92.75-1.67 1.67-1.67.92 0 1.67.75 1.67 1.67 0 .92-.75 1.67-1.67 1.67zm4.27-3.14c-.61-1.78-2.29-3.07-4.27-3.07-1.45 0-2.73.7-3.56 1.76-.37-.28-.68-.6-.92-.96-1.97-2.95-.01-8.45 5.12-14.56a63.87 63.87 0 0 0 5.87 5.38c.4 3.78 1.1 7.42 2.08 10.64-1.52.39-2.97.66-4.32.81zm5.45-8.97c.93.68 1.88 1.34 2.85 1.98 1.58 1.05 3.21 2.04 4.87 2.97-2.08.97-4.11 1.76-6.09 2.41-.69-2.27-1.24-4.75-1.63-7.36zm10.8 19.09c-3.01 0-6.04-3.35-8.25-9.03 2.69-.88 5.47-2.04 8.29-3.47 2.79 1.39 5.54 2.52 8.23 3.39-2.21 5.74-5.25 9.11-8.27 9.11zm9.21-11.81c-1.97-.64-3.99-1.42-6.04-2.35a79.29 79.29 0 0 0 4.86-2.99c.95-.64 1.89-1.3 2.79-1.97-.39 2.6-.94 5.07-1.61 7.31zm2.07-11.28a73.018 73.018 0 0 1-4.85 3.55 76.006 76.006 0 0 1-6.39 3.83 75.38 75.38 0 0 1-6.41-3.79 72.886 72.886 0 0 1-4.89-3.54c-.18-1.98-.28-4.02-.28-6.08 0-2.02.1-4.05.27-6.05 1.53-1.22 3.15-2.42 4.86-3.56 2.05-1.38 4.19-2.65 6.38-3.81 2.19 1.14 4.34 2.41 6.41 3.78 1.72 1.14 3.35 2.33 4.89 3.55.18 1.99.28 4.02.28 6.08 0 2.02-.1 4.04-.27 6.04zm13.73-22.78c1.94 2.9-.07 8.52-5.13 14.55a60.942 60.942 0 0 0-5.86-5.37c-.4-3.8-1.11-7.45-2.09-10.66 6.49-1.66 11.32-1.13 13.08 1.48zm-10.68 13.2c1.29 1.14 2.5 2.31 3.62 3.49a60.787 60.787 0 0 1-3.62 3.52c.06-1.15.08-2.31.08-3.46.01-1.2-.02-2.38-.08-3.55zM55.62 48.6c-1.72 2.6-6.69 3.15-13.14 1.53.97-3.2 1.67-6.83 2.07-10.62 2.15-1.77 4.11-3.59 5.86-5.44 1.93 2.27 3.44 4.5 4.46 6.57-1.08.83-1.79 2.12-1.79 3.58 0 1.84 1.1 3.41 2.67 4.12-.05.09-.08.18-.13.26zm2.02-2.71h-.04c-.91-.01-1.66-.75-1.66-1.67 0-.92.75-1.67 1.67-1.67s1.67.75 1.67 1.67c0 .92-.73 1.66-1.64 1.67z" fill="#ffffff" class="color000 svgShape"></path><path d="m27.02 34.58-1.64-1.44 1.64-1.44c.59-.52.65-1.43.13-2.02-.52-.6-1.43-.65-2.02-.13l-2.87 2.51c-.31.27-.49.66-.49 1.08 0 .41.18.81.49 1.08l2.87 2.51c.27.24.61.36.94.36.4 0 .79-.17 1.08-.49.53-.59.47-1.49-.13-2.02zm8.8-5.02c-.6-.52-1.5-.46-2.02.13-.52.59-.46 1.5.13 2.02l1.64 1.44-1.64 1.44c-.6.52-.65 1.43-.13 2.02a1.42 1.42 0 0 0 2.02.13l2.87-2.51c.31-.27.49-.66.49-1.08 0-.41-.18-.81-.49-1.08l-2.87-2.51zm-3.35-4.72c-.78-.18-1.54.29-1.73 1.06l-3.31 13.84a1.441 1.441 0 0 0 1.39 1.77c.65 0 1.24-.44 1.39-1.1l3.31-13.84c.19-.78-.28-1.55-1.05-1.73z" fill="#ffffff" class="color000 svgShape"></path></svg></g></svg>